<?xml version="1.0" encoding="UTF-8" standalone="no"?>
<!-- Created with Inkscape (http://www.inkscape.org/) -->

<svg
   width="255.71976mm"
   height="235.05009mm"
   viewBox="0 0 255.71976 235.05009"
   version="1.1"
   id="svg1"
   xml:space="preserve"
   inkscape:version="1.4.3 (0d15f75, 2025-12-25)"
   sodipodi:docname="logo_nero.svg"
   xmlns:inkscape="http://www.inkscape.org/namespaces/inkscape"
   xmlns:sodipodi="http://sodipodi.sourceforge.net/DTD/sodipodi-0.dtd"
   xmlns="http://www.w3.org/2000/svg"
   xmlns:svg="http://www.w3.org/2000/svg"><sodipodi:namedview
     id="namedview1"
     pagecolor="#ffffff"
     bordercolor="#000000"
     borderopacity="0.25"
     inkscape:showpageshadow="2"
     inkscape:pageopacity="0.0"
     inkscape:pagecheckerboard="0"
     inkscape:deskcolor="#d1d1d1"
     inkscape:document-units="mm"
     showborder="false"
     inkscape:antialias-rendering="true"
     labelstyle="default"
     inkscape:zoom="0.56495022"
     inkscape:cx="516.8597"
     inkscape:cy="414.19579"
     inkscape:window-width="1512"
     inkscape:window-height="921"
     inkscape:window-x="0"
     inkscape:window-y="33"
     inkscape:window-maximized="1"
     inkscape:current-layer="layer1" /><defs
     id="defs1" /><g
     inkscape:label="Livello 1"
     inkscape:groupmode="layer"
     id="layer1"
     transform="translate(3.6978297,-32.035945)"><path
       style="fill:#000000"
       d="m 21.427615,266.60476 c -9.257335,-1.71512 -18.6975189,-9.24361 -22.5608749,-17.99217 -2.3306003,-5.27763 -3.1272047,-11.56115 -2.1651148,-17.07816 0.719842,-4.12786 1.7531704,-6.7358 4.977626,-12.56264 1.3958241,-2.52236 5.3618496,-9.74548 8.8133897,-16.05139 3.451541,-6.3059 9.482931,-17.25965 13.40309,-24.34166 9.109206,-16.45636 18.639289,-33.75823 27.689793,-50.27083 3.934801,-7.17903 8.223472,-14.95778 9.53038,-17.28612 1.306909,-2.32833 3.609842,-6.5352 5.117629,-9.34861 5.241026,-9.779302 11.549799,-20.554359 8.430999,-14.399702 -1.06861,2.108801 -2.923407,7.10109 -4.432479,11.930262 -2.402888,7.68947 -3.997509,15.9574 -6.463762,33.51389 -3.412193,24.29033 -6.714507,33.11798 -23.094719,61.73611 -14.668559,25.62767 -19.732791,37.04846 -21.168422,47.73872 -1.329459,9.89966 1.96088,18.5455 8.794499,23.10881 l 2.077263,1.38714 -1.299649,0.21489 c -1.966878,0.32521 -4.901029,0.2107 -7.649648,-0.29854 z m 196.320815,0.18729 c -3.33914,-0.62979 -8.86565,-3.44034 -34.92499,-17.76135 -23.08448,-12.68616 -38.50948,-18.61022 -48.77686,-18.73303 l -3.09215,-0.037 1.45589,-0.61965 c 2.62653,-1.11788 11.36236,-3.7683 14.78256,-4.48498 17.79194,-3.72814 34.30386,-1.69469 54.53212,6.71565 19.13037,7.95386 28.3649,9.63614 37.21939,6.78035 4.37472,-1.41095 8.93635,-5.86865 10.3941,-10.15731 0.35484,-1.04391 0.76121,-1.82629 0.90305,-1.73863 0.14185,0.0877 0.5883,1.56671 0.99212,3.28676 3.69088,15.72112 -5.90892,31.51222 -21.90482,36.0321 -2.88865,0.81624 -9.03637,1.19692 -11.58041,0.71708 z M 33.774837,264.87863 c -8.637093,-2.80734 -12.853936,-11.9294 -10.947368,-23.68184 1.590841,-9.80624 6.411831,-20.46423 20.106322,-44.45 C 60.373677,166.201 63.385725,157.99073 67.295911,130.34029 70.420785,108.2431 72.645556,99.261403 77.513442,89.090749 84.386445,74.73073 92.1046,66.378118 98.477706,66.403155 c 3.570024,0.01403 5.589774,1.463275 8.593064,6.165863 1.60209,2.508566 10.94796,20.065748 14.05516,26.40406 l 1.7028,3.473502 -0.83309,1.64178 c -0.4582,0.90297 -2.53804,4.65802 -4.62187,8.34455 -2.08383,3.68652 -5.14003,9.24277 -6.79157,12.34722 -1.65153,3.10444 -4.30859,7.94632 -5.90457,10.75972 -1.59599,2.8134 -4.882616,8.76653 -7.303625,13.22917 -6.147569,11.33179 -15.60594,28.57098 -21.968306,40.04027 -2.95991,5.33577 -7.124856,12.87639 -9.255435,16.75695 -2.130579,3.88055 -6.093415,11.0243 -8.806301,15.875 -9.08796,16.24945 -9.973633,18.10258 -10.507716,21.98583 -1.180103,8.58038 6.41064,10.87968 19.74692,5.98151 15.096713,-5.54474 28.937736,-14.75412 54.504163,-36.26534 14.22327,-11.96725 25.71572,-16.63349 39.68092,-16.11151 10.02699,0.37478 14.06197,1.75389 32.81491,11.21578 22.37899,11.29143 29.22289,13.99252 34.56867,13.64323 4.3376,-0.28341 6.27531,-1.7793 7.42423,-5.73143 2.14772,-7.38791 -3.12901,-19.0636 -14.98762,-33.16273 C 216.32363,177.926 209.83661,171.01096 199.23506,160.23429 175.53312,136.14086 168.65241,126.31596 148.9579,88.444018 133.52603,58.769015 127.9441,50.098873 120.38177,44.058107 c -4.45039,-3.554964 -9.81893,-5.502607 -13.98294,-5.072843 -2.2747,0.23477 -2.20354,0.01808 0.6248,-1.902604 5.42481,-3.683921 9.98977,-5.006488 17.41509,-5.04552 5.98081,-0.03144 8.87682,0.548918 13.69433,2.744327 7.13599,3.251974 11.74773,7.760031 16.10096,15.738941 1.21739,2.231319 4.00571,7.311319 6.19627,11.288888 2.19056,3.97757 6.35889,11.59757 9.26294,16.933333 2.90406,5.335764 6.98521,12.797014 9.06922,16.580555 2.08401,3.783542 5.378,9.816046 7.31998,13.405556 1.94198,3.58951 4.52481,8.27264 5.73963,10.40694 1.21482,2.13431 3.59351,6.42056 5.28598,9.525 1.69247,3.10445 5.02274,9.13695 7.40058,13.40556 11.92154,21.40102 37.46402,67.93506 41.59235,75.77414 1.90206,3.61172 2.07857,5.3008 0.91492,8.75503 -2.31728,6.87876 -7.5971,10.19166 -16.24258,10.19166 -6.87003,0 -13.07394,-1.63653 -26.07764,-6.87902 -11.91777,-4.80468 -18.89069,-7.01377 -26.3378,-8.34406 -6.70275,-1.19733 -21.43336,-1.19251 -28.16511,0.009 -8.97378,1.60196 -18.33897,4.74639 -29.81098,10.00927 -3.58951,1.64672 -10.01888,4.30127 -14.28749,5.89901 -12.396405,4.63996 -28.9146,11.20975 -46.566668,18.52098 -22.842249,9.46093 -23.381667,9.64685 -25.752775,8.87616 z m 18.272056,-16.13492 c -1.566686,-0.45302 -2.220669,-1.53961 -2.220669,-3.68963 0,-3.45306 1.236631,-6.07968 11.449266,-24.3184 3.259333,-5.82083 7.128211,-12.75573 8.597507,-15.41088 l 2.671447,-4.82755 3.192972,-1.75725 c 10.552629,-5.80764 27.709344,-11.6882 41.469354,-14.21385 5.1083,-0.93763 16.54747,-1.29806 21.31186,-0.67151 6.89464,0.9067 14.45483,2.91418 21.46363,5.69933 3.63435,1.44421 11.36353,5.20612 11.14514,5.42451 -0.0708,0.0708 -1.15912,-0.10462 -2.41844,-0.38985 -3.69817,-0.83761 -13.2609,-1.02034 -17.45913,-0.33361 -11.54612,1.88867 -21.22331,7.21888 -36.14309,19.90766 -16.362969,13.91618 -31.299747,24.29551 -42.414992,29.47351 -9.212494,4.29161 -16.894157,6.19204 -20.644855,5.10752 z M 222.68732,217.97612 c -5.3826,-1.48607 -10.51424,-3.76448 -26.9875,-11.98225 -8.92527,-4.45243 -16.57183,-8.22648 -16.99234,-8.38679 -0.77724,-0.2963 -1.94024,-2.26357 -9.99778,-16.91168 -2.18795,-3.97757 -5.44247,-9.85132 -7.23226,-13.05277 -1.7898,-3.20146 -4.72589,-8.51959 -6.52466,-11.81806 -1.79877,-3.29847 -4.57849,-8.37847 -6.17716,-11.28889 -10.90399,-19.85095 -21.60618,-39.90633 -26.4496,-49.565273 -7.96391,-15.881922 -13.14512,-25.131886 -15.6311,-27.90604 -3.51672,-3.924377 -8.562654,-4.809152 -13.495328,-2.366326 -4.84556,2.399683 -8.43835,6.141774 -14.717436,15.329033 -0.91502,1.338814 3.406509,-6.750539 9.732379,-18.217778 3.585669,-6.49993 7.198808,-12.78309 8.029198,-13.962577 4.146967,-5.89036 11.415937,-7.487361 18.382907,-4.038749 2.5516,1.263026 3.68033,2.113781 6.29292,4.743123 6.64385,6.686455 11.45135,14.435267 23.98424,38.658203 14.74613,28.500554 21.44696,39.579614 31.73563,52.471234 5.37036,6.72903 9.37094,11.11603 21.47777,23.55237 20.65844,21.22069 27.00252,28.93075 31.64019,38.45278 3.71877,7.63536 4.23061,14.28773 1.24959,16.24097 -1.4971,0.98093 -4.87317,1.00101 -8.31966,0.0495 z"
       id="path1" /></g></svg>
